<svg width="20" height="20" viewBox="0 0 20 20" fill="none" xmlns="http://www.w3.org/2000/svg">
    <path d="M2.79406 7.45869C3.33698 5.14417 5.14417 3.33698 7.45869 2.79406C9.13021 2.40198 10.8698 2.40198 12.5413 2.79406C14.8558 3.33698 16.663 5.14417 17.2059 7.4587C17.598 9.13021 17.598 10.8698 17.2059 12.5413C16.663 14.8558 14.8558 16.663 12.5413 17.2059C10.8698 17.598 9.13021 17.598 7.4587 17.2059C5.14418 16.663 3.33698 14.8558 2.79406 12.5413C2.40198 10.8698 2.40198 9.13021 2.79406 7.45869Z" stroke="#47AFE9" stroke-width="1.5" />
    <path d="M10 12.9163V9.58301" stroke="#47AFE9" stroke-width="1.5" stroke-linecap="round" stroke-linejoin="round" />
    <mask id="path-3-inside-1_328_14717" fill="white">
        <ellipse cx="10.0001" cy="7.50033" rx="0.833333" ry="0.833333" />
    </mask>
    <path d="M9.83341 7.50033C9.83341 7.40828 9.90803 7.33366 10.0001 7.33366V9.33366C11.0126 9.33366 11.8334 8.51285 11.8334 7.50033H9.83341ZM10.0001 7.33366C10.0921 7.33366 10.1667 7.40828 10.1667 7.50033H8.16675C8.16675 8.51285 8.98756 9.33366 10.0001 9.33366V7.33366ZM10.1667 7.50033C10.1667 7.59237 10.0921 7.66699 10.0001 7.66699V5.66699C8.98756 5.66699 8.16675 6.4878 8.16675 7.50033H10.1667ZM10.0001 7.66699C9.90803 7.66699 9.83341 7.59237 9.83341 7.50033H11.8334C11.8334 6.4878 11.0126 5.66699 10.0001 5.66699V7.66699Z" fill="#47AFE9" mask="url(#path-3-inside-1_328_14717)" />
</svg>
    