<svg xmlns="http://www.w3.org/2000/svg" fill-rule="evenodd" stroke-linejoin="round" stroke-miterlimit="2" clip-rule="evenodd" viewBox="0 0 562 562"><defs/><g fill-rule="nonzero"><path fill="url(#_Linear1)" d="M360 296c-44.11 0-80 35.89-80 80s35.89 80 80 80 80-35.89 80-80-35.89-80-80-80zm-64 80a63.62 63.62 0 0113.5-39.18l89.68 89.67A63.54 63.54 0 01360 440c-35.29 0-64-28.71-64-64zm114.5 39.18l-89.68-89.68A63.62 63.62 0 01360 312c35.29 0 64 28.71 64 64a63.62 63.62 0 01-13.5 39.18z" transform="translate(16.74 16.74) scale(1.03226)"/><path fill="url(#_Linear2)" d="M40 40h16v16H40z" transform="translate(16.74 16.74) scale(1.03226)"/><path fill="url(#_Linear3)" d="M104 40h16v16h-16z" transform="translate(16.74 16.74) scale(1.03226)"/><path fill="url(#_Linear4)" d="M72 40h16v16H72z" transform="translate(16.74 16.74) scale(1.03226)"/><path fill="url(#_Linear5)" d="M72 136h16v16H72z" transform="translate(16.74 16.74) scale(1.03226)"/><path fill="url(#_Linear6)" d="M104 136h16v16h-16z" transform="translate(16.74 16.74) scale(1.03226)"/><path fill="url(#_Linear7)" d="M136 136h16v16h-16z" transform="translate(16.74 16.74) scale(1.03226)"/><path fill="url(#_Linear8)" d="M480 8H32C18.77 8 8 18.77 8 32v336c0 13.23 10.77 24 24 24h218.74a149.77 149.77 0 0075.39 103.36A70.93 70.93 0 00360 504c11.8 0 23.52-3 33.88-8.64A149.79 149.79 0 00469.28 392H480c13.23 0 24-10.77 24-24V32c0-13.23-10.77-24-24-24zM32 24h448c4.4 0 8 3.6 8 8v40H24V32c0-4.4 3.6-8 8-8zm312 144H56v-40c0-4.4 3.6-8 8-8h88c2.5 0 4.9 1.2 6.4 3.2L180 152h156c4.4 0 8 3.6 8 8v8zM56 184h288v66.58a53.46 53.46 0 00-17.5 9.17A92.75 92.75 0 01268.78 280H248v64H64a8 8 0 01-8-8V184zm400 179.76c0 49.03-26.74 94.08-69.78 117.55a55.63 55.63 0 01-52.44 0A133.82 133.82 0 01264 363.76V296h4.78a108.8 108.8 0 0067.72-23.76c13.3-10.62 33.7-10.62 47 0A108.83 108.83 0 00451.23 296H456v67.76zM480 376h-8.55c.33-4.06.55-8.13.55-12.24V280h-20.78a92.71 92.71 0 01-57.73-20.26A53.78 53.78 0 00360 248v-88c0-13.23-10.77-24-24-24H188l-16.8-22.4c-4.51-6.02-11.69-9.6-19.2-9.6H64c-13.23 0-24 10.77-24 24v208c0 13.23 10.77 24 24 24h184v3.76c0 4.11.22 8.18.55 12.24H32a8 8 0 01-8-8V88h464v280a8 8 0 01-8 8z" transform="translate(16.74 16.74) scale(1.03226)"/><path fill="url(#_Linear9)" d="M376 104h96v16h-96z" transform="translate(16.74 16.74) scale(1.03226)"/><path fill="url(#_Linear10)" d="M376 136h96v16h-96z" transform="translate(16.74 16.74) scale(1.03226)"/><path fill="url(#_Linear11)" d="M376 168h96v16h-96z" transform="translate(16.74 16.74) scale(1.03226)"/><path fill="url(#_Linear12)" d="M376 200h96v16h-96z" transform="translate(16.74 16.74) scale(1.03226)"/><path fill="url(#_Linear13)" d="M456 232h16v16h-16z" transform="translate(16.74 16.74) scale(1.03226)"/><path fill="url(#_Linear14)" d="M424 232h16v16h-16z" transform="translate(16.74 16.74) scale(1.03226)"/><path fill="url(#_Linear15)" d="M392 232h16v16h-16z" transform="translate(16.74 16.74) scale(1.03226)"/><path fill="url(#_Linear16)" d="M88 328h48c8.82 0 16-7.18 16-16v-16c0-8.82-7.18-16-16-16H88c-8.82 0-16 7.18-16 16v16c0 8.82 7.18 16 16 16zm0-32h48v16H88v-16z" transform="translate(16.74 16.74) scale(1.03226)"/></g><defs><linearGradient id="_Linear1" x1="0" x2="1" y1="0" y2="0" gradientTransform="matrix(496 496 -496 496 8 8)" gradientUnits="userSpaceOnUse"><stop offset="0" stop-color="#3c5ba9"/><stop offset="1" stop-color="#ec008c"/></linearGradient><linearGradient id="_Linear2" x1="0" x2="1" y1="0" y2="0" gradientTransform="matrix(496 496 -496 496 8 8)" gradientUnits="userSpaceOnUse"><stop offset="0" stop-color="#3c5ba9"/><stop offset="1" stop-color="#ec008c"/></linearGradient><linearGradient id="_Linear3" x1="0" x2="1" y1="0" y2="0" gradientTransform="matrix(496 496 -496 496 8 8)" gradientUnits="userSpaceOnUse"><stop offset="0" stop-color="#3c5ba9"/><stop offset="1" stop-color="#ec008c"/></linearGradient><linearGradient id="_Linear4" x1="0" x2="1" y1="0" y2="0" gradientTransform="matrix(496 496 -496 496 8 8)" gradientUnits="userSpaceOnUse"><stop offset="0" stop-color="#3c5ba9"/><stop offset="1" stop-color="#ec008c"/></linearGradient><linearGradient id="_Linear5" x1="0" x2="1" y1="0" y2="0" gradientTransform="matrix(496 496 -496 496 8 8)" gradientUnits="userSpaceOnUse"><stop offset="0" stop-color="#3c5ba9"/><stop offset="1" stop-color="#ec008c"/></linearGradient><linearGradient id="_Linear6" x1="0" x2="1" y1="0" y2="0" gradientTransform="matrix(496 496 -496 496 8 8)" gradientUnits="userSpaceOnUse"><stop offset="0" stop-color="#3c5ba9"/><stop offset="1" stop-color="#ec008c"/></linearGradient><linearGradient id="_Linear7" x1="0" x2="1" y1="0" y2="0" gradientTransform="matrix(496 496 -496 496 8 8)" gradientUnits="userSpaceOnUse"><stop offset="0" stop-color="#3c5ba9"/><stop offset="1" stop-color="#ec008c"/></linearGradient><linearGradient id="_Linear8" x1="0" x2="1" y1="0" y2="0" gradientTransform="matrix(496 496 -496 496 8 8)" gradientUnits="userSpaceOnUse"><stop offset="0" stop-color="#3c5ba9"/><stop offset="1" stop-color="#ec008c"/></linearGradient><linearGradient id="_Linear9" x1="0" x2="1" y1="0" y2="0" gradientTransform="matrix(496 496 -496 496 8 8)" gradientUnits="userSpaceOnUse"><stop offset="0" stop-color="#3c5ba9"/><stop offset="1" stop-color="#ec008c"/></linearGradient><linearGradient id="_Linear10" x1="0" x2="1" y1="0" y2="0" gradientTransform="matrix(496 496 -496 496 8 8)" gradientUnits="userSpaceOnUse"><stop offset="0" stop-color="#3c5ba9"/><stop offset="1" stop-color="#ec008c"/></linearGradient><linearGradient id="_Linear11" x1="0" x2="1" y1="0" y2="0" gradientTransform="matrix(496 496 -496 496 8 8)" gradientUnits="userSpaceOnUse"><stop offset="0" stop-color="#3c5ba9"/><stop offset="1" stop-color="#ec008c"/></linearGradient><linearGradient id="_Linear12" x1="0" x2="1" y1="0" y2="0" gradientTransform="matrix(496 496 -496 496 8 8)" gradientUnits="userSpaceOnUse"><stop offset="0" stop-color="#3c5ba9"/><stop offset="1" stop-color="#ec008c"/></linearGradient><linearGradient id="_Linear13" x1="0" x2="1" y1="0" y2="0" gradientTransform="matrix(496 496 -496 496 8 8)" gradientUnits="userSpaceOnUse"><stop offset="0" stop-color="#3c5ba9"/><stop offset="1" stop-color="#ec008c"/></linearGradient><linearGradient id="_Linear14" x1="0" x2="1" y1="0" y2="0" gradientTransform="matrix(496 496 -496 496 8 8)" gradientUnits="userSpaceOnUse"><stop offset="0" stop-color="#3c5ba9"/><stop offset="1" stop-color="#ec008c"/></linearGradient><linearGradient id="_Linear15" x1="0" x2="1" y1="0" y2="0" gradientTransform="matrix(496 496 -496 496 8 8)" gradientUnits="userSpaceOnUse"><stop offset="0" stop-color="#3c5ba9"/><stop offset="1" stop-color="#ec008c"/></linearGradient><linearGradient id="_Linear16" x1="0" x2="1" y1="0" y2="0" gradientTransform="matrix(496 496 -496 496 8 8)" gradientUnits="userSpaceOnUse"><stop offset="0" stop-color="#3c5ba9"/><stop offset="1" stop-color="#ec008c"/></linearGradient></defs></svg>