<svg fill="none" height="189" viewBox="0 0 190 189" width="190" xmlns="http://www.w3.org/2000/svg"><path d="m153.831 99.8363-17.257-11.1362h-82.7478l-17.2575 11.1362v54.1697h117.2623zm-85.6604 45.2457h-12.39v-12.39h12.39zm0-24.374h-12.39v-12.39h12.39zm22.1619 24.374h-12.39v-12.39h12.39zm0-24.374h-12.39v-12.39h12.39zm22.1245 24.374h-12.39v-12.39h12.39zm0-24.374h-12.39v-12.39h12.39zm22.162 24.374h-12.39v-12.39h12.39zm0-24.374h-12.39v-12.39h12.39z" fill="#3b4652"/><path d="m106.262 54.2589h20.503v-29.6475h32.671v-16.29878h-62.0604v16.29878h8.8864z" fill="#3b4652"/><g fill="#f46262"><path d="m136.574 36.0426h-4.646v23.4156h-30.828v-23.4156h-10.3618v15.6719h-5.1625v-43.40188h-19.1013v43.36498h-5.1625v-15.635h-7.5225v47.495h82.7476v-47.495zm-61.8027-22.1619h2.5444c1.4381 0 2.5812 1.1432 2.5812 2.5813s-1.1431 2.5812-2.5812 2.5812h-2.5444c-1.4381 0-2.5812-1.1431-2.5812-2.5812s1.1431-2.5813 2.5812-2.5813zm0 7.4119h2.5444c1.4381 0 2.5812 1.1431 2.5812 2.5813 0 1.4381-1.1431 2.5812-2.5812 2.5812h-2.5444c-1.4381 0-2.5812-1.1431-2.5812-2.5812 0-1.4382 1.1431-2.5813 2.5812-2.5813zm0 7.4119h2.5444c1.4381 0 2.5812 1.1431 2.5812 2.5812 0 1.4382-1.1431 2.5813-2.5812 2.5813h-2.5444c-1.4381 0-2.5812-1.1431-2.5812-2.5813 0-1.4012 1.1431-2.5812 2.5812-2.5812zm0 7.4119h2.5444c1.4381 0 2.5812 1.1431 2.5812 2.5812s-1.1431 2.5813-2.5812 2.5813h-2.5444c-1.4381 0-2.5812-1.1432-2.5812-2.5813 0-1.4012 1.1431-2.5812 2.5812-2.5812zm0 7.4487h2.5444c1.4381 0 2.5812 1.1431 2.5812 2.5813 0 1.4381-1.1431 2.5812-2.5812 2.5812h-2.5444c-1.4381 0-2.5812-1.1431-2.5812-2.5812 0-1.4382 1.1431-2.5813 2.5812-2.5813zm14.7131 29.6844h-26.845c-1.4381 0-2.5812-1.1431-2.5812-2.5812 0-1.4382 1.1431-2.5813 2.5812-2.5813h26.845c1.4382 0 2.5813 1.1431 2.5813 2.5813 0 1.4381-1.18 2.5812-2.5813 2.5812zm37.2806 3.9087h-20.502v-12.9431h20.465v12.9431z"/><path d="m24.4 159.168v21.72h141.6v-21.72zm104.024 13.423h-9.808c-1.438 0-2.582-1.143-2.582-2.582 0-1.438 1.144-2.581 2.582-2.581h9.808c1.439 0 2.582 1.143 2.582 2.581 0 1.439-1.143 2.582-2.582 2.582zm22.42 0h-9.808c-1.438 0-2.582-1.143-2.582-2.582 0-1.438 1.144-2.581 2.582-2.581h9.808c1.439 0 2.582 1.143 2.582 2.581 0 1.439-1.143 2.582-2.582 2.582z"/></g></svg>