<svg width="24" height="24" viewBox="0 0 24 24" fill="none" xmlns="http://www.w3.org/2000/svg">
    <path d="M2.88539 15.1513L3.85592 14.9103L2.88539 15.1513ZM2.88539 8.84875L3.85592 9.08974L2.88539 8.84875ZM21.1146 8.84875L22.0851 8.60776L21.1146 8.84875ZM21.1146 15.1512L20.1441 14.9103L21.1146 15.1512ZM15.1156 20.659L14.8992 19.6826H14.8992L15.1156 20.659ZM8.88443 20.659L9.10077 19.6826L8.88443 20.659ZM8.88443 3.34105L9.10077 4.31737H9.10077L8.88443 3.34105ZM15.1156 3.34105L15.3319 2.36473V2.36473L15.1156 3.34105ZM8.43056 20.5584L8.21422 21.5347L8.43056 20.5584ZM15.5694 20.5584L15.7858 21.5347L15.5694 20.5584ZM15.5694 3.44162L15.3531 4.41794L15.5694 3.44162ZM8.43056 3.44162L8.21422 2.4653L8.43056 3.44162ZM8.6469 4.41794L9.10077 4.31737L8.66809 2.36473L8.21422 2.4653L8.6469 4.41794ZM14.8992 4.31737L15.3531 4.41794L15.7858 2.4653L15.3319 2.36473L14.8992 4.31737ZM15.3531 19.5821L14.8992 19.6826L15.3319 21.6353L15.7858 21.5347L15.3531 19.5821ZM9.10077 19.6826L8.64689 19.5821L8.21422 21.5347L8.66809 21.6353L9.10077 19.6826ZM3.85592 14.9103C3.38136 12.9991 3.38136 11.0009 3.85592 9.08974L1.91487 8.60775C1.36171 10.8354 1.36171 13.1646 1.91487 15.3922L3.85592 14.9103ZM20.1441 9.08975C20.6186 11.0009 20.6186 12.9991 20.1441 14.9103L22.0851 15.3922C22.6383 13.1646 22.6383 10.8354 22.0851 8.60776L20.1441 9.08975ZM14.8992 19.6826C12.9896 20.1058 11.0104 20.1058 9.10077 19.6826L8.66809 21.6353C10.8628 22.1216 13.1372 22.1216 15.3319 21.6353L14.8992 19.6826ZM9.10077 4.31737C11.0104 3.89421 12.9896 3.89421 14.8992 4.31737L15.3319 2.36473C13.1372 1.87842 10.8628 1.87842 8.66809 2.36473L9.10077 4.31737ZM8.64689 19.5821C6.29302 19.0605 4.43713 17.2509 3.85592 14.9103L1.91487 15.3922C2.67897 18.4694 5.11901 20.8488 8.21422 21.5347L8.64689 19.5821ZM15.7858 21.5347C18.881 20.8488 21.321 18.4694 22.0851 15.3922L20.1441 14.9103C19.5629 17.2509 17.707 19.0605 15.3531 19.5821L15.7858 21.5347ZM15.3531 4.41794C17.707 4.93952 19.5629 6.74911 20.1441 9.08975L22.0851 8.60776C21.321 5.53056 18.881 3.15115 15.7858 2.4653L15.3531 4.41794ZM8.21422 2.4653C5.11901 3.15115 2.67897 5.53056 1.91487 8.60775L3.85592 9.08974C4.43713 6.74911 6.29302 4.93952 8.6469 4.41794L8.21422 2.4653Z" fill="#F0836B" />
    <path fill-rule="evenodd" clip-rule="evenodd" d="M12.0002 7C12.3826 7 12.6926 7.29199 12.6926 7.65217V8.18573H12.7692C14.0567 8.18573 15 9.24015 15 10.4189C15 10.7791 14.69 11.0711 14.3077 11.0711C13.9253 11.0711 13.6154 10.7791 13.6154 10.4189C13.6154 9.85137 13.1811 9.49008 12.7692 9.49008H12.6926V11.5432L13.6273 11.8634C14.4767 12.1544 15 12.9457 15 13.7838C15 14.8506 14.1451 15.8142 12.9666 15.8142H12.6926V16.3478C12.6926 16.708 12.3826 17 12.0002 17C11.6179 17 11.3079 16.708 11.3079 16.3478V15.8142H11.2308C9.94328 15.8142 9 14.7598 9 13.581C9 13.2208 9.30996 12.9288 9.69231 12.9288C10.0747 12.9288 10.3846 13.2208 10.3846 13.581C10.3846 14.1486 10.8189 14.5098 11.2308 14.5098H11.3079V12.4568L10.3727 12.1365C9.5233 11.8455 9 11.0542 9 10.2161C9 9.14934 9.85491 8.18573 11.0334 8.18573H11.3079V7.65217C11.3079 7.29199 11.6179 7 12.0002 7ZM11.3079 9.49008H11.0334C10.7306 9.49008 10.3846 9.76055 10.3846 10.2161C10.3846 10.5645 10.6001 10.8265 10.8459 10.9107L11.3079 11.0689V9.49008ZM12.6926 12.9312V14.5098H12.9666C13.2694 14.5098 13.6154 14.2394 13.6154 13.7838C13.6154 13.4355 13.3999 13.1735 13.1541 13.0893L12.6926 12.9312Z" fill="#F0836B" />
</svg>
    