<?xml version="1.0" encoding="iso-8859-1"?>
<!-- Generator: Adobe Illustrator 19.0.0, SVG Export Plug-In . SVG Version: 6.00 Build 0)  -->
<svg version="1.1" id="Capa_1" xmlns="http://www.w3.org/2000/svg" xmlns:xlink="http://www.w3.org/1999/xlink" x="0px" y="0px"
	 viewBox="0 0 493.32 493.32" style="enable-background:new 0 0 493.32 493.32;" xml:space="preserve">
<g>
	<path d="M51.612,305.957c-1.457-9.616-10.49-16.026-19.814-14.569c-9.616,1.457-16.026,10.49-14.569,19.814
		c3.788,23.894,26.225,67.311,84.502,74.012v27.39c0,9.616,7.867,17.483,17.483,17.483c9.616,0,17.483-7.867,17.483-17.483v-27.682
		c66.728-7.576,85.085-55.364,85.085-81.88c0-29.139-10.199-64.105-85.085-81.88V132.29c35.841,6.119,42.834,29.139,43.417,32.053
		v-0.291l34.384-6.993c-0.583-2.331-11.656-52.158-77.509-60.026V71.973c0-9.616-7.867-17.483-17.483-17.483
		s-17.483,7.867-17.483,17.483v24.477c-78.966,7.867-79.84,71.681-79.84,74.595c0,0.583,0,1.457,0,2.331
		c-0.874,25.059,6.993,59.735,79.549,76.635v100.237C59.479,343.255,52.486,310.037,51.612,305.957z M180.405,280.315
		c6.702,7.867,6.702,15.735,6.702,23.311c0,1.748-0.583,39.046-50.119,46.622v-92.37
		C162.63,264.872,174.577,273.613,180.405,280.315z M62.102,193.482c-5.536-6.702-5.245-12.821-4.954-18.94c0-1.166,0-2.331,0-3.497
		c0-4.371,1.748-14.278,8.742-22.437c7.576-9.033,19.523-14.569,35.841-16.9v82.171C78.128,207.468,67.055,199.309,62.102,193.482z
		 M354.072,325.48h74.013c9.616,0,17.483,7.867,17.483,17.483c0,9.616-7.867,17.483-17.483,17.483h-82.463
		c-0.583,4.954-0.583,10.199-0.583,15.735c0,3.788,0,7.285,0.291,10.49h82.754c9.616,0,17.483,7.867,17.483,17.483
		s-7.867,17.483-17.483,17.483h-76.052c4.371,11.073,10.781,19.523,18.94,25.351c30.887,21.854,81.297,4.662,81.88,4.662
		c9.033-3.205,19.232,1.457,22.437,10.781c3.205,9.033-1.457,19.232-10.781,22.437c-1.748,0.583-24.477,8.45-52.45,8.45
		c-19.814,0-42.251-4.079-61.191-17.483c-17.483-12.238-29.43-30.304-35.549-53.907h-21.271c-9.616,0-17.483-7.867-17.483-17.483
		c0-9.616,7.867-17.483,17.483-17.483h16.026c-0.291-3.497-0.291-6.993-0.291-10.49c0-5.245,0.291-10.49,0.583-15.735h-16.318
		c-9.616,0-17.483-7.867-17.483-17.483s7.867-17.483,17.483-17.483h22.728c6.702-21.563,18.066-38.463,34.384-50.41
		c45.457-33.51,110.145-13.987,112.767-13.112c9.324,2.914,14.278,12.53,11.656,21.854c-2.914,9.324-12.53,14.278-21.854,11.656
		c-1.166-0.291-50.993-14.861-81.88,8.159C364.562,308.871,358.443,316.156,354.072,325.48z M285.305,95.284h6.993
		c-3.497-8.45-5.828-18.649-5.828-31.761C286.47,23.311,308.033,0,345.913,0c28.556,0,46.622,16.026,52.741,25.642l-29.139,19.232
		l0.291,0.291c-0.291-0.291-7.576-10.199-23.894-10.199c-20.689,0-24.477,10.49-24.477,28.556c0,13.695,3.788,20.689,9.907,31.179
		c0,0.291,0.291,0.291,0.291,0.583h26.808c9.616,0,17.483,7.867,17.483,17.483s-7.867,17.483-17.483,17.483h-13.695
		c0.291,11.656-4.079,25.059-12.821,40.794h67.019c9.616,0,17.483,7.867,17.483,17.483s-7.867,17.483-17.483,17.483H298.709
		c-6.702,0-12.821-3.788-15.735-10.199c-2.914-6.119-2.04-13.404,2.331-18.649c13.987-16.9,25.351-39.337,24.185-47.205h-24.185
		c-9.616,0-17.483-7.867-17.483-17.483S275.689,95.284,285.305,95.284z"/>
</g>
<g>
</g>
<g>
</g>
<g>
</g>
<g>
</g>
<g>
</g>
<g>
</g>
<g>
</g>
<g>
</g>
<g>
</g>
<g>
</g>
<g>
</g>
<g>
</g>
<g>
</g>
<g>
</g>
<g>
</g>
</svg>
