<svg enable-background="new 0 0 64 64" viewBox="0 0 64 64" xmlns="http://www.w3.org/2000/svg"><path d="m42 48.572c-.276 0-.5-.224-.5-.5v-3.572c0-.276.224-.5.5-.5s.5.224.5.5v3.572c0 .277-.224.5-.5.5z" fill="#263238"/><path d="m32 33.141c-1.778 0-3.43-.883-4.416-2.363-.055-.083-.084-.179-.084-.278v-1.761c0-.165.082-.32.219-.413.136-.093.312-.111.464-.053 2.457.965 5.178.965 7.635 0 .152-.059.328-.04.464.053.137.093.219.248.219.413v1.761c0 .099-.029.195-.084.277-.987 1.481-2.639 2.364-4.417 2.364zm-3.5-2.797c.809 1.128 2.106 1.797 3.5 1.797s2.691-.669 3.5-1.797v-.896c-2.271.732-4.729.732-7 0z" fill="#263238"/><path d="m36.816 63.999c-1.82 0-3.652-.472-5.306-1.44l-5.492-3.22c-1.455-.854-3.117-1.305-4.805-1.305h-2.785c-.276 0-.5-.224-.5-.5s.224-.5.5-.5h2.785c1.865 0 3.702.498 5.311 1.441l5.492 3.22c3.727 2.187 8.466 1.579 11.521-1.478l10.447-10.447c.378-.378.586-.88.586-1.414s-.208-1.036-.586-1.414c-.756-.756-2.072-.756-2.828 0l-4.243 4.242c-.195.195-.512.195-.707 0s-.195-.512 0-.707l4.243-4.242c1.133-1.133 3.109-1.133 4.242 0 .566.566.879 1.319.879 2.121 0 .801-.312 1.555-.879 2.121l-10.446 10.448c-2.022 2.022-4.712 3.074-7.429 3.074z" fill="#263238"/><path d="m8.929 44.534v14.5c0 .552.448 1 1 1h5.5c.552 0 1-.448 1-1v-14.5c0-.552-.448-1-1-1h-5.5c-.552 0-1 .448-1 1z" fill="#40c4ff"/><g fill="#263238"><path d="m15.429 60.534h-5.5c-.827 0-1.5-.673-1.5-1.5v-14.5c0-.827.673-1.5 1.5-1.5h5.5c.827 0 1.5.673 1.5 1.5v14.5c0 .827-.673 1.5-1.5 1.5zm-5.5-16.5c-.275 0-.5.225-.5.5v14.5c0 .275.225.5.5.5h5.5c.275 0 .5-.225.5-.5v-14.5c0-.275-.225-.5-.5-.5z"/><path d="m41.429 55.534h-6.5c-.276 0-.5-.224-.5-.5s.224-.5.5-.5h6.5c1.103 0 2-.897 2-2s-.897-2-2-2h-7c-.061 0-.121-.011-.178-.033l-7.92-3.018c-1.655-.63-3.393-.949-5.162-.949h-2.74c-.276 0-.5-.224-.5-.5s.224-.5.5-.5h2.74c1.892 0 3.748.342 5.518 1.015l7.834 2.985h6.908c1.654 0 3 1.346 3 3s-1.346 3-3 3z"/><path d="m50 45.173c-.276 0-.5-.224-.5-.5v-3.228c0-2.804-1.665-5.33-4.243-6.434l-9.087-3.895c-1.002 1.274-2.532 2.023-4.17 2.023-.001 0-.001 0-.001 0-1.638 0-3.167-.749-4.169-2.023l-9.087 3.895c-2.578 1.104-4.243 3.63-4.243 6.434 0 .276-.224.545-.5.545s-.5-.18-.5-.456c0-3.294 1.903-6.18 4.849-7.442l9.454-4.052c.225-.094.479-.018.613.183.801 1.201 2.14 1.918 3.583 1.918h.001c1.443 0 2.783-.717 3.584-1.918.133-.201.391-.277.613-.183l9.454 4.052c2.945 1.263 4.849 4.148 4.849 7.354v3.228c0 .275-.224.499-.5.499z"/><path d="m56.5 30h-10c-.276 0-.5-.224-.5-.5s.224-.5.5-.5h10c.276 0 .5.224.5.5s-.224.5-.5.5z"/><path d="m59.5 30h-1c-.276 0-.5-.224-.5-.5s.224-.5.5-.5h1c.276 0 .5.224.5.5s-.224.5-.5.5z"/><path d="m17.5 30h-10c-.276 0-.5-.224-.5-.5s.224-.5.5-.5h10c.276 0 .5.224.5.5s-.224.5-.5.5z"/><path d="m5.5 30h-1c-.276 0-.5-.224-.5-.5s.224-.5.5-.5h1c.276 0 .5.224.5.5s-.224.5-.5.5z"/><path d="m31.985 30c-5.243 0-9.745-3.475-11.095-8.502-1.61-.05-2.905-1.376-2.905-2.998s1.295-2.948 2.905-2.998c1.35-5.027 5.852-8.502 11.095-8.502s9.746 3.475 11.096 8.502c1.61.05 2.904 1.376 2.904 2.998s-1.294 2.948-2.904 2.998c-1.35 5.027-5.852 8.502-11.096 8.502zm-10.777-9.521c.24 0 .501.15.554.379 1.102 4.794 5.306 8.142 10.223 8.142 4.918 0 9.122-3.348 10.225-8.142.057-.249.284-.421.548-.384.129.018.177.025.228.025 1.103 0 2-.897 2-2s-.897-2-2-2c-.051 0-.099.008-.147.015-.257.041-.569-.121-.628-.373-1.104-4.793-5.308-8.141-10.226-8.141-4.917 0-9.121 3.348-10.224 8.142-.058.249-.287.421-.548.384-.129-.018-.178-.025-.229-.025-1.103 0-2 .897-2 2s.897 2 2 2c.051 0 .1-.008.149-.015.025-.005.051-.007.075-.007z"/></g><path d="m21.986 17.5h-.5v-6.5h3v4c0 1.381-1.12 2.5-2.5 2.5z" fill="#ffd740"/><path d="m21.985 18h-.5c-.276 0-.5-.224-.5-.5v-6.5c0-.276.224-.5.5-.5h3c.276 0 .5.224.5.5v4c0 1.654-1.345 3-3 3zm0-1h.01zm0-5.5v5.5c1.103 0 2-.897 2-2v-3.5z" fill="#263238"/><path d="m39.486 10.95v4.05c0 1.381 1.119 2.5 2.5 2.5h.5v-7.935c-.789.774-1.838 1.267-3 1.385z" fill="#ffd740"/><path d="m42.485 18h-.5c-1.654 0-3-1.346-3-3v-4.051c0-.257.194-.472.45-.497 1.03-.104 1.989-.546 2.699-1.244.145-.141.359-.182.544-.104.186.078.307.26.307.461v7.935c0 .276-.223.5-.5.5zm-2.5-6.617v3.617c0 1.103.897 2 2 2v-6.401c-.6.384-1.282.653-2 .784z" fill="#263238"/><path d="m31.985 23.997c-1.408 0-2.816-.536-3.889-1.608-.195-.195-.195-.512 0-.707s.512-.195.707 0c1.755 1.754 4.611 1.754 6.364 0 .195-.195.512-.195.707 0s.195.512 0 .707c-1.071 1.072-2.479 1.608-3.889 1.608z" fill="#263238"/><path d="m38.986 11h-17.5c0-4.142 3.358-7.5 7.5-7.5h5.205c2.171 0 4.315-.471 6.286-1.381l3.509-1.619v5.5c0 2.761-2.239 5-5 5z" fill="#ffd740"/><path d="m38.985 11.5h-17.5c-.276 0-.5-.224-.5-.5 0-4.411 3.589-8 8-8h5.206c2.085 0 4.186-.462 6.076-1.335l3.508-1.619c.155-.069.335-.06.479.033.144.092.23.25.23.421v5.5c.001 3.032-2.466 5.5-5.499 5.5zm-16.982-1h16.982c2.481 0 4.5-2.019 4.5-4.5v-4.719l-2.798 1.292c-2.021.934-4.267 1.427-6.496 1.427h-5.206c-3.691 0-6.724 2.873-6.982 6.5z" fill="#263238"/><path d="m12.929 15h-4c-.276 0-.5-.224-.5-.5s.224-.5.5-.5h4c.276 0 .5.224.5.5s-.224.5-.5.5z" fill="#263238"/><path d="m17.429 8h-4c-.276 0-.5-.224-.5-.5s.224-.5.5-.5h4c.276 0 .5.224.5.5s-.224.5-.5.5z" fill="#263238"/><path d="m15.429 10c-.276 0-.5-.224-.5-.5v-4c0-.276.224-.5.5-.5s.5.224.5.5v4c0 .276-.224.5-.5.5z" fill="#263238"/><path d="m10.929 17c-.276 0-.5-.224-.5-.5v-4c0-.276.224-.5.5-.5s.5.224.5.5v4c0 .276-.224.5-.5.5z" fill="#263238"/></svg>