<svg width="24" height="24" viewBox="0 0 24 24" fill="none" xmlns="http://www.w3.org/2000/svg">
    <path d="M3.35288 15.0496L2.3793 15.2779L3.35288 15.0496ZM3.35288 8.95043L2.3793 8.72206L3.35288 8.95043ZM20.6471 8.95044L19.6736 9.17881L20.6471 8.95044ZM20.6471 15.0496L19.6736 14.8212L20.6471 15.0496ZM15.0496 20.6471L14.8212 19.6736L15.0496 20.6471ZM8.95044 20.6471L9.1788 19.6736L8.95044 20.6471ZM8.95043 3.35288L9.1788 4.32645L8.95043 3.35288ZM15.0496 3.35288L14.8212 4.32645L15.0496 3.35288ZM8.02588 8.69221C7.63535 8.30169 7.00219 8.30169 6.61167 8.69221C6.22114 9.08274 6.22114 9.7159 6.61167 10.1064L8.02588 8.69221ZM8.35904 10.4396L7.65194 11.1467C8.04246 11.5372 8.67563 11.5372 9.06615 11.1467L8.35904 10.4396ZM11.1467 9.06615C11.5372 8.67563 11.5372 8.04246 11.1467 7.65194C10.7562 7.26141 10.123 7.26141 9.73248 7.65194L11.1467 9.06615ZM13.0403 8.91946C12.488 8.91946 12.0403 9.36717 12.0403 9.91946C12.0403 10.4717 12.488 10.9195 13.0403 10.9195V8.91946ZM16.6812 10.9195C17.2335 10.9195 17.6812 10.4717 17.6812 9.91946C17.6812 9.36717 17.2335 8.91946 16.6812 8.91946V10.9195ZM8.02588 13.8936C7.63535 13.5031 7.00219 13.5031 6.61167 13.8936C6.22114 14.2841 6.22114 14.9173 6.61167 15.3078L8.02588 13.8936ZM8.35904 15.641L7.65194 16.3481C8.04246 16.7386 8.67563 16.7386 9.06615 16.3481L8.35904 15.641ZM11.1467 14.2675C11.5372 13.877 11.5372 13.2438 11.1467 12.8533C10.7562 12.4628 10.123 12.4628 9.73248 12.8533L11.1467 14.2675ZM13.0403 14.1208C12.488 14.1208 12.0403 14.5685 12.0403 15.1208C12.0403 15.6731 12.488 16.1208 13.0403 16.1208V14.1208ZM16.6812 16.1208C17.2335 16.1208 17.6812 15.6731 17.6812 15.1208C17.6812 14.5685 17.2335 14.1208 16.6812 14.1208V16.1208ZM4.32645 14.8212C3.89118 12.9656 3.89118 11.0344 4.32645 9.1788L2.3793 8.72206C1.87357 10.8781 1.87357 13.1219 2.3793 15.2779L4.32645 14.8212ZM19.6736 9.17881C20.1088 11.0344 20.1088 12.9656 19.6736 14.8212L21.6207 15.2779C22.1264 13.1219 22.1264 10.8781 21.6207 8.72207L19.6736 9.17881ZM14.8212 19.6736C12.9656 20.1088 11.0344 20.1088 9.1788 19.6736L8.72207 21.6207C10.8781 22.1264 13.1219 22.1264 15.2779 21.6207L14.8212 19.6736ZM9.1788 4.32645C11.0344 3.89118 12.9656 3.89118 14.8212 4.32645L15.2779 2.3793C13.1219 1.87357 10.8781 1.87357 8.72206 2.3793L9.1788 4.32645ZM9.1788 19.6736C6.77114 19.1088 4.89121 17.2289 4.32645 14.8212L2.3793 15.2779C3.11753 18.4251 5.57488 20.8825 8.72207 21.6207L9.1788 19.6736ZM15.2779 21.6207C18.4251 20.8825 20.8825 18.4251 21.6207 15.2779L19.6736 14.8212C19.1088 17.2289 17.2289 19.1088 14.8212 19.6736L15.2779 21.6207ZM14.8212 4.32645C17.2289 4.89121 19.1088 6.77114 19.6736 9.17881L21.6207 8.72207C20.8825 5.57488 18.4251 3.11753 15.2779 2.3793L14.8212 4.32645ZM8.72206 2.3793C5.57488 3.11753 3.11753 5.57488 2.3793 8.72206L4.32645 9.1788C4.89121 6.77114 6.77114 4.89121 9.1788 4.32645L8.72206 2.3793ZM6.61167 10.1064L7.65194 11.1467L9.06615 9.73248L8.02588 8.69221L6.61167 10.1064ZM9.06615 11.1467L11.1467 9.06615L9.73248 7.65194L7.65194 9.73248L9.06615 11.1467ZM13.0403 10.9195H16.6812V8.91946H13.0403V10.9195ZM6.61167 15.3078L7.65194 16.3481L9.06615 14.9338L8.02588 13.8936L6.61167 15.3078ZM9.06615 16.3481L11.1467 14.2675L9.73248 12.8533L7.65194 14.9338L9.06615 16.3481ZM13.0403 16.1208H16.6812V14.1208H13.0403V16.1208Z" fill="#6A81A4" />
</svg>
    