<?xml version="1.0" encoding="iso-8859-1"?>
<!-- Uploaded to: SVG Repo, www.svgrepo.com, Generator: SVG Repo Mixer Tools -->
<svg fill="#000000" version="1.1" id="Layer_1" xmlns="http://www.w3.org/2000/svg" xmlns:xlink="http://www.w3.org/1999/xlink" 
	 viewBox="0 0 480.16 480.16" xml:space="preserve">
<g>
	<g>
		<g>
			<rect x="221.837" y="383.75" width="58.118" height="20"/>
			<path d="M394.438,330.221c-11.215-3.841-28.098-10.968-35.499-16.463v-18.566c25.231-14.443,42.65-39.743,48.906-70.967
				c16.126-3.851,27.455-19.682,27.455-34.038c0-13.424-9.503-22.888-24.922-25.686v-11.417c0.137-4.198,1.055-53.931-30.314-86.589
				c-17.506-18.226-41.394-27.467-71-27.467c-29.555,0-53.291,9.076-70.72,27.005c-17.404-17.926-41.069-27.005-70.538-27.005
				c-29.699,0-53.638,9.263-71.151,27.532c-31.279,32.627-30.31,82.223-30.163,86.527v11.414
				c-15.418,2.798-24.922,12.262-24.922,25.686c0,14.36,11.335,30.197,27.469,34.042c6.16,30.474,22.974,55.408,47.197,69.997
				v16.367c-7.242,6.294-22.037,15.04-31.184,19.878C1.877,357.64,0.039,407.985,0.002,410.122C0.001,410.18,0,410.239,0,410.297
				v20.835c0,5.523,4.478,10,10,10h460.16c5.522,0,10-4.477,10-10v-20.878C480.15,408.093,478.96,357.045,394.438,330.221z
				 M410.379,185.053c2.727,0.945,4.922,2.516,4.922,5.134c0,3.149-1.92,7.183-4.954,10.267
				C410.356,199.823,410.379,185.053,410.379,185.053z M61.57,190.187c0-2.618,2.195-4.189,4.922-5.134
				c0,0,0.023,14.77,0.032,15.401C63.49,197.37,61.57,193.336,61.57,190.187z M390.38,198.56L390.38,198.56
				c-0.001,4.898-0.341,9.958-1.008,15.01c-4.116,30.462-20.451,54.744-44.813,66.618c-0.041,0.02-0.081,0.04-0.122,0.06
				c-10.527,5.309-22.428,8-35.372,8c-12.944,0-24.845-2.692-35.372-8c-0.051-0.025-0.102-0.05-0.153-0.075
				c-8.45-4.082-16.004-9.801-22.551-16.996c7.409-11.404,12.736-24.62,15.669-38.943c16.143-3.838,27.486-19.681,27.486-34.046
				c0-13.424-9.503-22.888-24.922-25.686v-8.265c15.191-3.265,31.633-8.48,40.026-18.001c14.767,8.324,44.369,22.158,81.132,24.366
				V198.56z M338.939,303.914v10.582c-2.238,2.308-6.475,6-12.619,8.487c-4.306,1.757-9.005,2.648-13.967,2.648
				c-6.421,0-13.067-1.467-19.722-4.347c-5.879-2.569-10.562-5.696-13.442-7.849v-9.521c9.386,2.874,19.38,4.333,29.875,4.333
				C319.56,308.247,329.553,306.788,338.939,303.914z M276.312,335.415l-1.506,4.419c-3.64-1.695-7.439-3.311-11.417-4.854
				c2.109-1.242,4.162-2.535,6.08-3.899C271.407,332.434,273.706,333.922,276.312,335.415z M259.189,295.196v18.616
				c-4.441,3.444-11.615,7.102-17.131,9.914c-0.605,0.309-1.202,0.613-1.789,0.914c-9.23-5.344-16.602-10.304-20.893-14.044v-16.361
				c7.002-4.205,13.374-9.28,19.061-15.18C244.666,285.465,251.608,290.862,259.189,295.196z M269.189,200.454
				c0.009-0.631,0.032-15.401,0.032-15.401c2.728,0.945,4.922,2.517,4.922,5.134C274.143,193.336,272.223,197.37,269.189,200.454z
				 M309.064,59.028c23.905,0,42.913,7.145,56.495,21.237c18.603,19.301,23.31,47.435,24.472,62.253
				c-45.345-3.252-79.016-26.631-79.363-26.876c-3.051-2.166-7.056-2.45-10.379-0.733c-3.324,1.716-5.413,5.145-5.413,8.886
				c0,1.304-5.044,6.971-26.575,12.115c-1.556-14.247-5.868-35.021-17.517-53.846C264.553,66.787,284.117,59.028,309.064,59.028z
				 M111.093,80.4c13.595-14.182,32.677-21.373,56.714-21.373c27.445,0,48.393,9.444,62.256,28.068
				c14.1,18.957,17.8,43.033,18.756,55.417c-45.338-3.267-79.07-26.633-79.417-26.878c-3.051-2.162-7.055-2.441-10.374-0.725
				c-3.322,1.717-5.408,5.144-5.408,8.883c0,1.444-6.275,8.482-35.269,14.045c-11.615,2.229-23.361,3.545-31.527,4.277
				C87.978,127.268,92.666,99.622,111.093,80.4z M87.503,213.599c-0.671-5.074-1.011-10.134-1.011-15.039v-36.332
				c8.608-0.722,21.951-2.134,35.44-4.712c9.744-1.862,34.666-6.624,45.964-19.345c14.751,8.315,44.457,22.215,81.324,24.429v35.959
				c0,4.898-0.34,9.958-1.001,14.972c-2.356,16.946-8.554,32.257-17.921,44.276c-0.038,0.049-0.075,0.098-0.112,0.147
				c-6.985,9.314-15.703,16.646-25.998,21.839c-10.858,5.61-23.099,8.454-36.382,8.454c-13.284,0-25.524-2.844-36.447-8.488
				C107.603,267.706,91.614,243.573,87.503,213.599z M199.376,303.399v7.46c-2.858,2.828-8.279,7.572-15.421,10.952
				c-10.683,5.07-21.608,5.073-32.307-0.004c-7.122-3.371-12.55-8.122-15.412-10.952v-7.461c9.905,3.221,20.469,4.854,31.571,4.854
				C178.918,308.248,189.491,306.612,199.376,303.399z M20,421.133v-10.61c0.071-1.069,0.909-10.065,9.313-21.672
				c15.131-20.899,63.773-40.009,64.274-40.271c2.436-1.273,20.149-10.647,32.291-20.075c2.527,2.197,5.662,4.641,9.306,6.977
				l-10.061,30.184c-0.684,2.051-0.684,4.269-0.001,6.32l16.356,49.147H20z M173.057,421.133h-10.5L145.15,368.83l8.376-25.127
				c9.448,2.506,19.118,2.505,28.561,0.001l8.376,25.126L173.057,421.133z M315.611,416.948l-1.395,4.184H194.135l16.356-49.147
				c0.683-2.051,0.683-4.269-0.002-6.32l-10.062-30.184c3.639-2.333,6.771-4.772,9.295-6.966
				c7.537,5.851,17.393,11.749,25.436,16.22c4.094,2.353,6.88,3.8,6.997,3.861c0.504,0.261,1.028,0.479,1.568,0.651
				c12.328,3.927,22.779,8.328,31.981,13.473c38.138,21.141,39.838,46.08,39.907,47.705V416.948z M326.849,383.369
				c-6.125-10.506-16.533-22.684-34.212-33.856l2.152-6.313c5.871,1.612,11.748,2.432,17.565,2.432c3.854,0,7.624-0.365,11.28-1.08
				l8.085,24.265L326.849,383.369z M460.16,421.132H335.612v-0.891L351.744,372c0.687-2.053,0.689-4.274,0.006-6.329l-9.455-28.441
				c2.96-1.82,5.486-3.73,7.554-5.525c13.23,8.686,33.465,15.851,38.227,17.476c0.07,0.024,48.005,18.605,62.989,39.514
				c8.438,11.773,9.056,20.895,9.095,21.738V421.132z"/>
			<rect x="362.995" y="383.75" width="58.118" height="20"/>
		</g>
	</g>
</g>
</svg>