<svg width="20" height="20" viewBox="0 0 20 20" fill="none" xmlns="http://www.w3.org/2000/svg">
    <path d="M2.79406 12.5413L3.52425 12.37L2.79406 12.5413ZM2.79406 7.45869L3.52425 7.62997L2.79406 7.45869ZM17.2059 7.4587L16.4758 7.62997L17.2059 7.4587ZM17.2059 12.5413L17.9361 12.7126L17.2059 12.5413ZM12.5413 17.2059L12.37 16.4758L12.5413 17.2059ZM7.4587 17.2059L7.28742 17.9361L7.4587 17.2059ZM7.45869 2.79406L7.62997 3.52424L7.45869 2.79406ZM12.5413 2.79406L12.37 3.52424L12.5413 2.79406ZM9.25 12.6007C9.25 13.0149 9.58579 13.3507 10 13.3507C10.4142 13.3507 10.75 13.0149 10.75 12.6007H9.25ZM7.39932 6.64932C6.9851 6.64932 6.64932 6.9851 6.64932 7.39932C6.64932 7.81353 6.9851 8.14932 7.39932 8.14932V6.64932ZM12.6007 8.14932C13.0149 8.14932 13.3507 7.81353 13.3507 7.39932C13.3507 6.9851 13.0149 6.64932 12.6007 6.64932V8.14932ZM3.52425 12.37C3.15858 10.8112 3.15858 9.18883 3.52425 7.62997L2.06388 7.28741C1.64537 9.07159 1.64537 10.9284 2.06388 12.7126L3.52425 12.37ZM16.4758 7.62997C16.8414 9.18884 16.8414 10.8112 16.4758 12.37L17.9361 12.7126C18.3546 10.9284 18.3546 9.07159 17.9361 7.28742L16.4758 7.62997ZM12.37 16.4758C10.8112 16.8414 9.18884 16.8414 7.62997 16.4758L7.28742 17.9361C9.07159 18.3546 10.9284 18.3546 12.7126 17.9361L12.37 16.4758ZM7.62997 3.52424C9.18884 3.15859 10.8112 3.15858 12.37 3.52424L12.7126 2.06388C10.9284 1.64537 9.07159 1.64537 7.28742 2.06388L7.62997 3.52424ZM7.62997 16.4758C5.59277 15.9979 4.00211 14.4072 3.52425 12.37L2.06388 12.7126C2.67185 15.3044 4.69558 17.3282 7.28742 17.9361L7.62997 16.4758ZM12.7126 17.9361C15.3044 17.3282 17.3282 15.3044 17.9361 12.7126L16.4758 12.37C15.9979 14.4072 14.4072 15.9979 12.37 16.4758L12.7126 17.9361ZM12.37 3.52424C14.4072 4.00211 15.9979 5.59277 16.4758 7.62997L17.9361 7.28742C17.3282 4.69558 15.3044 2.67185 12.7126 2.06388L12.37 3.52424ZM7.28742 2.06388C4.69558 2.67185 2.67185 4.69557 2.06388 7.28741L3.52425 7.62997C4.00211 5.59277 5.59277 4.00211 7.62997 3.52424L7.28742 2.06388ZM9.25 7.39932V12.6007H10.75V7.39932H9.25ZM10 6.64932H7.39932V8.14932H10V6.64932ZM10 8.14932H12.6007V6.64932H10V8.14932Z" fill="#A965FF" />
</svg>
    