<?xml version="1.0" encoding="iso-8859-1"?>
<!-- Generator: Adobe Illustrator 19.0.0, SVG Export Plug-In . SVG Version: 6.00 Build 0)  -->
<svg version="1.1" id="Layer_1" xmlns="http://www.w3.org/2000/svg" xmlns:xlink="http://www.w3.org/1999/xlink" x="0px" y="0px"
	 viewBox="0 0 512 512" style="enable-background:new 0 0 512 512;" xml:space="preserve">
<g>
	<circle style="fill:#65687A;" cx="158.897" cy="467.862" r="22.069"/>
	<circle style="fill:#65687A;" cx="459.034" cy="467.862" r="22.069"/>
</g>
<path style="fill:#AFB9D2;" d="M487.104,118.189L64.026,92.81L47.62,40.604c-3.5-11.086-13.655-18.535-25.267-18.535H8.828
	C3.948,22.069,0,26.017,0,30.897s3.948,8.828,8.828,8.828h13.526c3.871,0,7.258,2.492,8.423,6.182l84.431,268.664
	c3.879,12.329,12.828,21.815,23.953,26.862l-21.323,39.095c-7.534,13.802-7.242,30.13,0.793,43.656
	c8.033,13.533,22.222,21.61,37.955,21.61h302.449c4.879,0,8.828-3.948,8.828-8.828s-3.948-8.828-8.828-8.828H156.586
	c-9.44,0-17.956-4.845-22.776-12.966c-4.82-8.12-4.991-17.913-0.474-26.198l23.735-43.518c0.075,0,0.147,0.018,0.222,0.018
	c1.732,0,3.482-0.104,5.241-0.31l318.319-37.897c17.759-2.103,31.147-17.173,31.147-35.06V144.629
	C512,130.638,501.069,119.026,487.104,118.189z M494.345,144.629v62.819h-70.621v-75.377l62.327,3.738
	C490.698,136.095,494.345,139.966,494.345,144.629z M237.743,318.428l-19.443-93.324h86.643l3.858,84.865L237.743,318.428z
	 M214.622,207.448l-18.548-89.032l104.305,6.257l3.763,82.775H214.622z M322.617,225.103h83.452v73.286l-79.689,9.487
	L322.617,225.103z M321.815,207.448l-3.714-81.711l87.968,5.276v76.436H321.815z M177.82,117.322l18.776,90.126h-96.545
	l-30.361-96.612L177.82,117.322z M160.448,327.629c-12.552,1.594-24.569-6.207-28.396-18.354L105.6,225.103h94.675l19.879,95.418
	L160.448,327.629z M478.776,289.732l-55.052,6.554v-71.183h70.621v47.104C494.345,281.146,487.656,288.681,478.776,289.732z"/>
<g>
	<circle style="fill:#464655;" cx="158.897" cy="467.862" r="8.828"/>
	<circle style="fill:#464655;" cx="459.034" cy="467.862" r="8.828"/>
</g>
<path style="fill:#65687A;" d="M26.483,39.724H8.828C3.953,39.724,0,35.772,0,30.897l0,0c0-4.875,3.953-8.828,8.828-8.828h17.655
	c4.875,0,8.828,3.953,8.828,8.828l0,0C35.31,35.772,31.358,39.724,26.483,39.724z"/>
<g>
</g>
<g>
</g>
<g>
</g>
<g>
</g>
<g>
</g>
<g>
</g>
<g>
</g>
<g>
</g>
<g>
</g>
<g>
</g>
<g>
</g>
<g>
</g>
<g>
</g>
<g>
</g>
<g>
</g>
</svg>
