<?xml version="1.0" ?><svg fill="none" height="24" viewBox="0 0 24 24" width="24" xmlns="http://www.w3.org/2000/svg"><g id="Bill"><path clip-rule="evenodd" d="M12.15 2.05C12.0611 1.98333 11.9389 1.98333 11.85 2.05L10.3833 3.15C9.76111 3.61667 8.90556 3.61667 8.28333 3.15L6.81667 2.05C6.72778 1.98333 6.60556 1.98333 6.51667 2.05L4.85 3.3C4.78705 3.34721 4.75 3.42131 4.75 3.5V20.5C4.75 20.5787 4.78705 20.6528 4.85 20.7L6.51667 21.95C6.60556 22.0167 6.72778 22.0167 6.81667 21.95L8.28333 20.85C8.90556 20.3833 9.76111 20.3833 10.3833 20.85L11.85 21.95C11.9389 22.0167 12.0611 22.0167 12.15 21.95L13.6949 20.7913C14.2498 20.3751 14.9982 20.326 15.6028 20.6661L17.2108 21.5705C17.2869 21.6134 17.3798 21.6134 17.4559 21.5705L19.1226 20.633C19.2013 20.5888 19.25 20.5055 19.25 20.4152V3.5C19.25 3.42131 19.213 3.34721 19.15 3.3L17.4833 2.05C17.3944 1.98333 17.2722 1.98333 17.1833 2.05L15.7167 3.15C15.0944 3.61667 14.2389 3.61667 13.6167 3.15L12.15 2.05ZM10.95 0.85C11.5722 0.383333 12.4278 0.383334 13.05 0.85L14.5167 1.95C14.6056 2.01667 14.7278 2.01667 14.8167 1.95L16.2833 0.85C16.9056 0.383333 17.7611 0.383334 18.3833 0.85L20.05 2.1C20.4907 2.4305 20.75 2.94918 20.75 3.5V20.4152C20.75 21.0474 20.409 21.6305 19.858 21.9404L18.1913 22.8779C17.6586 23.1776 17.0081 23.1776 16.4754 22.8779L14.8674 21.9734C14.7811 21.9249 14.6742 21.9319 14.5949 21.9913L13.05 23.15C12.4278 23.6167 11.5722 23.6167 10.95 23.15L9.48333 22.05C9.39444 21.9833 9.27222 21.9833 9.18333 22.05L7.71667 23.15C7.09444 23.6167 6.23889 23.6167 5.61667 23.15L3.95 21.9C3.50934 21.5695 3.25 21.0508 3.25 20.5V3.5C3.25 2.94918 3.50934 2.4305 3.95 2.1L5.61667 0.85C6.23889 0.383334 7.09444 0.383334 7.71667 0.85L9.18333 1.95C9.27222 2.01667 9.39444 2.01667 9.48333 1.95L10.95 0.85Z" fill="black" fill-rule="evenodd" id="Vector 53 (Stroke)"/><path clip-rule="evenodd" d="M7.25 8C7.25 7.58579 7.58579 7.25 8 7.25H16C16.4142 7.25 16.75 7.58579 16.75 8C16.75 8.41421 16.4142 8.75 16 8.75H8C7.58579 8.75 7.25 8.41421 7.25 8Z" fill="black" fill-rule="evenodd" id="Vector 54 (Stroke)"/><path clip-rule="evenodd" d="M7.25 12C7.25 11.5858 7.58579 11.25 8 11.25H16C16.4142 11.25 16.75 11.5858 16.75 12C16.75 12.4142 16.4142 12.75 16 12.75H8C7.58579 12.75 7.25 12.4142 7.25 12Z" fill="black" fill-rule="evenodd" id="Vector 55 (Stroke)"/><path clip-rule="evenodd" d="M7.25 16C7.25 15.5858 7.58579 15.25 8 15.25H16C16.4142 15.25 16.75 15.5858 16.75 16C16.75 16.4142 16.4142 16.75 16 16.75H8C7.58579 16.75 7.25 16.4142 7.25 16Z" fill="black" fill-rule="evenodd" id="Vector 56 (Stroke)"/></g></svg>