<svg width="20" height="20" viewBox="0 0 20 20" fill="none" xmlns="http://www.w3.org/2000/svg">
    <path d="M3.90013 11.7861L4.63031 11.6148L3.90013 11.7861ZM3.90013 7.08574L3.16995 6.91446L3.90013 7.08574ZM17.2281 7.08574L16.4979 7.25702L17.2281 7.08574ZM17.2281 11.7861L17.9582 11.9574L17.2281 11.7861ZM12.9143 16.0999L12.743 15.3697L12.9143 16.0999ZM8.21392 16.0999L8.3852 15.3697L8.21392 16.0999ZM8.21392 2.77195L8.3852 3.50213L8.21392 2.77195ZM12.9143 2.77195L12.743 3.50213L12.9143 2.77195ZM4.46761 13.2613L5.12422 12.8988L4.89235 12.4788L4.41378 12.5132L4.46761 13.2613ZM6.73872 15.5324L7.48678 15.5862L7.52122 15.1076L7.10116 14.8758L6.73872 15.5324ZM7.59311 7.41263C7.1789 7.41263 6.84311 7.74842 6.84311 8.16263C6.84311 8.57685 7.1789 8.91263 7.59311 8.91263V7.41263ZM10.1397 8.91263C10.5539 8.91263 10.8897 8.57685 10.8897 8.16263C10.8897 7.74842 10.5539 7.41263 10.1397 7.41263V8.91263ZM8.44196 9.95919C8.02775 9.95919 7.69196 10.295 7.69196 10.7092C7.69196 11.1234 8.02775 11.4592 8.44196 11.4592V9.95919ZM12.6862 11.4592C13.1004 11.4592 13.4362 11.1234 13.4362 10.7092C13.4362 10.295 13.1004 9.95919 12.6862 9.95919V11.4592ZM4.63031 11.6148C4.29414 10.1817 4.29414 8.69016 4.63031 7.25702L3.16995 6.91446C2.78093 8.57292 2.78092 10.2989 3.16995 11.9574L4.63031 11.6148ZM16.4979 7.25702C16.834 8.69016 16.834 10.1817 16.4979 11.6148L17.9582 11.9574C18.3473 10.2989 18.3473 8.57292 17.9582 6.91447L16.4979 7.25702ZM12.743 15.3697C11.3098 15.7059 9.81835 15.7059 8.3852 15.3697L8.04265 16.8301C9.7011 17.2191 11.4271 17.2191 13.0855 16.8301L12.743 15.3697ZM8.3852 3.50213C9.81834 3.16596 11.3098 3.16596 12.743 3.50213L13.0855 2.04177C11.4271 1.65274 9.7011 1.65274 8.04265 2.04177L8.3852 3.50213ZM8.3852 15.3697C6.52208 14.9327 5.06734 13.4779 4.63031 11.6148L3.16995 11.9574C3.73708 14.3751 5.62489 16.2629 8.04265 16.8301L8.3852 15.3697ZM13.0855 16.8301C15.5033 16.2629 17.3911 14.3751 17.9582 11.9574L16.4979 11.6148C16.0608 13.4779 14.6061 14.9327 12.743 15.3697L13.0855 16.8301ZM12.743 3.50213C14.6061 3.93916 16.0608 5.3939 16.4979 7.25702L17.9582 6.91447C17.3911 4.49671 15.5033 2.6089 13.0855 2.04177L12.743 3.50213ZM8.04265 2.04177C5.62489 2.6089 3.73708 4.4967 3.16995 6.91446L4.63031 7.25702C5.06734 5.3939 6.52208 3.93916 8.3852 3.50213L8.04265 2.04177ZM4.41378 12.5132C2.92443 12.6204 1.75 13.8616 1.75 15.3779H3.25C3.25 14.654 3.81102 14.0605 4.52144 14.0093L4.41378 12.5132ZM1.75 15.3779C1.75 16.9641 3.0359 18.25 4.62213 18.25V16.75C3.86432 16.75 3.25 16.1357 3.25 15.3779H1.75ZM4.62213 18.25C6.13836 18.25 7.37961 17.0756 7.48678 15.5862L5.99065 15.4786C5.93953 16.189 5.34601 16.75 4.62213 16.75V18.25ZM7.10116 14.8758C6.2695 14.4167 5.58328 13.7305 5.12422 12.8988L3.811 13.6237C4.40677 14.703 5.29695 15.5932 6.37628 16.189L7.10116 14.8758ZM7.59311 8.91263H10.1397V7.41263H7.59311V8.91263ZM8.44196 11.4592H12.6862V9.95919H8.44196V11.4592Z" fill="#656BFF" />
</svg>
    