<svg width="22" height="22" viewBox="0 0 22 22" fill="none" xmlns="http://www.w3.org/2000/svg">
    <path d="M1.71436 13.3929C1.16207 13.3929 0.714355 13.8406 0.714355 14.3929C0.714355 14.9451 1.16207 15.3929 1.71436 15.3929V13.3929ZM20.2858 15.3929C20.8381 15.3929 21.2858 14.9451 21.2858 14.3929C21.2858 13.8406 20.8381 13.3929 20.2858 13.3929V15.3929ZM3.85721 14.3929H2.85721C2.85721 14.9451 3.30493 15.3929 3.85721 15.3929V14.3929ZM11.0001 1V0V1ZM18.1429 14.3929V15.3929C18.6952 15.3929 19.1429 14.9451 19.1429 14.3929H18.1429ZM9.14293 17.4286C9.14293 16.8763 8.69521 16.4286 8.14293 16.4286C7.59064 16.4286 7.14293 16.8763 7.14293 17.4286H9.14293ZM8.14293 18.1429H7.14293H8.14293ZM14.8572 17.4286C14.8572 16.8763 14.4095 16.4286 13.8572 16.4286C13.3049 16.4286 12.8572 16.8763 12.8572 17.4286H14.8572ZM1.71436 15.3929H20.2858V13.3929H1.71436V15.3929ZM4.85721 14.3929V8.14286H2.85721V14.3929H4.85721ZM4.85721 8.14286C4.85721 6.51367 5.5044 4.95121 6.65641 3.7992L5.2422 2.38499C3.71512 3.91207 2.85721 5.98324 2.85721 8.14286H4.85721ZM6.65641 3.7992C7.80842 2.64719 9.37088 2 11.0001 2V0C8.84045 0 6.76928 0.857906 5.2422 2.38499L6.65641 3.7992ZM11.0001 2C12.6293 2 14.1917 2.64719 15.3437 3.7992L16.7579 2.38499C15.2309 0.857906 13.1597 0 11.0001 0V2ZM15.3437 3.7992C16.4957 4.95121 17.1429 6.51367 17.1429 8.14286H19.1429C19.1429 5.98324 18.285 3.91207 16.7579 2.38499L15.3437 3.7992ZM17.1429 8.14286V14.3929H19.1429V8.14286H17.1429ZM18.1429 13.3929H3.85721V15.3929H18.1429V13.3929ZM7.14293 17.4286V18.1429H9.14293V17.4286H7.14293ZM7.14293 18.1429C7.14293 19.1658 7.5493 20.1469 8.27266 20.8703L9.68687 19.4561C9.33859 19.1078 9.14293 18.6354 9.14293 18.1429H7.14293ZM8.27266 20.8703C8.99601 21.5936 9.97709 22 11.0001 22V20C10.5075 20 10.0352 19.8043 9.68687 19.4561L8.27266 20.8703ZM11.0001 22C12.023 22 13.0041 21.5936 13.7275 20.8703L12.3133 19.4561C11.965 19.8043 11.4926 20 11.0001 20V22ZM13.7275 20.8703C14.4508 20.1469 14.8572 19.1658 14.8572 18.1429H12.8572C12.8572 18.6354 12.6615 19.1078 12.3133 19.4561L13.7275 20.8703ZM14.8572 18.1429V17.4286H12.8572V18.1429H14.8572Z" fill="#6A81A4" />
</svg>
    