<svg height="512pt" viewBox="0 -76 512 512" width="512pt" xmlns="http://www.w3.org/2000/svg"><path d="m437 210c-12.304688 0-23.917969 2.996094-34.171875 8.273438l-19.160156-23.953126c8.988281-5.3125 18.777343-9.292968 29.050781-11.59375 8.433594-1.886718 16.980469-2.808593 25.355469-2.71875.144531 0 .289062.003907.433593.003907 22.296876 0 43.492188-17.886719 43.492188-46.765625 0-73.589844-59.820312-133.246094-133.046875-133.246094h-16.953125c-8.285156 0-15 6.714844-15 15s6.714844 15 15 15h16.953125c4.417969 0 8.773437.28125 13.046875.824219v29.480469c-8.761719.792968-17.210938 3.109374-25.007812 6.761718-19.882813-23.144531-49.742188-37.066406-80.992188-37.066406-35.460938 0-68.261719 18.015625-87.515625 46.996094l-24.765625-14.859375c-2.332031-1.398438-5-2.136719-7.71875-2.136719h-121c-8.285156 0-15 6.714844-15 15 0 41.355469 33.644531 75 75 75 28.675781 0 21.863281-.402344 33.679688 1.449219 58.332031 9.140625 102.320312 60.105469 102.320312 118.550781h-31c0-49.625-40.375-90-90-90s-90 40.375-90 90 40.375 90 90 90c39.109375 0 72.46875-25.078125 84.851562-60h142.148438c8.285156 0 15-6.714844 15-15 0-8.371094.992188-16.878906 2.953125-25.28125 4.089844-17.527344 13.066406-33.605469 25.304687-46.632812l19.148438 23.933593c-10.859375 13.015625-17.40625 29.746094-17.40625 47.980469 0 41.355469 33.644531 75 75 75s75-33.644531 75-75-33.644531-75-75-75zm-347 120c-33.085938 0-60-26.914062-60-60s26.914062-60 60-60 60 26.914062 60 60h-45c-8.269531 0-15-6.730469-15-15 0-8.285156-6.714844-15-15-15s-15 6.714844-15 15c0 24.8125 20.1875 44.800781 45 44.800781h36.929688c-10.394532 17.914063-29.769532 30.199219-51.929688 30.199219zm166-270c21.808594 0 42.640625 9.367188 56.859375 25.03125-2.308594 2.59375-4.457031 5.359375-6.417969 8.292969l-18.105468 26.535156c-33.117188-1.214844-65.460938-10.632813-94.089844-27.425781 13.851562-20.039063 36.890625-32.433594 61.753906-32.433594zm-142.679688 62.011719c-14.5625-2.28125-6.359374-1.8125-38.320312-1.8125-19.554688 0-36.238281-12.738281-42.429688-30.199219h99.273438l45.257812 27.152344c28.09375 16.859375 59.386719 27.480468 91.734376 31.273437l-1.308594 1.917969c-22.457032 1.902344-43.136719 11.625-58.796875 27.34375-23.699219-29.957031-57.902344-49.800781-95.410157-55.675781zm189.5 147.988281h-61.820312c0-23.027344-5.414062-45.597656-15.585938-66.035156 12.21875-15.132813 30.488282-23.964844 50.273438-23.964844 4.957031 0 9.59375-2.449219 12.390625-6.542969l43.1875-63.28125c.03125-.046875.0625-.089843.089844-.136719 8.367187-12.546874 22.363281-20.039062 37.445312-20.039062h8.199219c8.285156 0 15-6.714844 15-15v-35.546875c34.632812 16.019531 60 50.828125 60 95.636719 0 7.765625-5.902344 14.984375-13.621094 14.917968-10.714844-.105468-21.535156 1.050782-32.21875 3.441407-24.097656 5.402343-46.34375 17.664062-64.332031 35.464843-21.847656 21.628907-35.546875 49.273438-39.007813 81.085938zm134.179688 60c-24.8125 0-45-20.1875-45-45 0-8.710938 2.496094-16.84375 6.796875-23.742188l26.488281 33.113282c5.179688 6.472656 14.621094 7.515625 21.085938 2.34375 6.46875-5.175782 7.515625-14.617188 2.34375-21.082032l-26.5-33.125c4.632812-1.617187 9.605468-2.507812 14.785156-2.507812 24.8125 0 45 20.1875 45 45s-20.1875 45-45 45zm0 0"/></svg>