<svg width="20" height="20" viewBox="0 0 20 20" fill="none" xmlns="http://www.w3.org/2000/svg">
    <path d="M14.9002 13.4609C14.1846 14.4737 13.1729 15.2398 12.0041 15.654C10.8353 16.0682 9.56686 16.1101 8.37328 15.7739C7.39727 15.499 6.51051 14.9823 5.79272 14.2764" stroke="#6A81A4" stroke-width="2" stroke-linecap="round" />
    <path d="M4.41174 7.81494C4.20454 8.34504 4.07335 8.90312 4.02316 9.47258C3.97438 10.0262 4.00285 10.5826 4.10674 11.126" stroke="#6A81A4" stroke-width="2" stroke-linecap="round" />
    <path d="M7.13867 4.72624C7.81117 4.36137 8.55026 4.12688 9.31693 4.03902C10.4403 3.91028 11.5771 4.10159 12.5965 4.5909C13.6158 5.0802 14.4762 5.84758 15.0784 6.80459C15.5013 7.4768 15.7848 8.22335 15.9161 9" stroke="#6A81A4" stroke-width="2" stroke-linecap="round" />
</svg>