<svg viewBox="0 0 400 300" xmlns="http://www.w3.org/2000/svg"><path d="m108.55 70.16c-28 12.3-48.66 43.29-52.62 80.7-3.33 31.53 6.42 77.53 55.05 87.27 94.62 18.94 194 30.28 216.37-21.89s3-158.75-45-164.34c-38.19-4.44-119.15-5.76-173.8 18.26z" fill="#e6e6e6" opacity=".3"/><path d="m117.35 39.9h166.3v72.92h-166.3z" fill="#68e1fd"/><path d="m117.35 112.82-11.42 20.59h188.93l-11.22-20.59z" fill="#68e1fd"/><path d="m117.35 112.82-11.42 20.59h188.93l-11.22-20.59z" fill="#fff" opacity=".39"/><path d="m105.96 133.4h188.9v8.38h-188.9z" fill="#68e1fd"/><path d="m105.96 141.79 15.23 54.55h157.42l16.25-54.55z" fill="#24285b"/><circle cx="200.39" cy="76.36" fill="#68e1fd" r="27.95"/><circle cx="200.39" cy="76.36" fill="#fff" opacity=".39" r="27.95"/><circle cx="200.39" cy="76.36" fill="#24285b" r="22.23"/><circle cx="204.08" cy="72.83" fill="#fff" opacity=".08" r="11.69"/><circle cx="208.66" cy="70.53" fill="#fff" opacity=".08" r="4.59"/><path d="m256 51.3h27.65a0 0 0 0 1 0 0v28.6a0 0 0 0 1 0 0h-27.65a14.3 14.3 0 0 1 -14.3-14.3 14.3 14.3 0 0 1 14.3-14.3z" opacity=".08"/><path d="m255.99 89.56h18.72v9.03h-18.72z" fill="#24285b"/><path d="m130.63 58.57h22.72v22.72h-22.72z" fill="#fff" opacity=".39"/><path d="m130.63 97h22.72v7.31h-22.72z" fill="#24285b"/><path d="m151.82 31.56h89.87v8.34h-89.87z" fill="#24285b"/><path d="m130.63 157.51h138.3v106.55h-138.3z" fill="#ffd200"/><path d="m146.72 157.51h106.13v90.55h-106.13z" fill="#fff" opacity=".5"/><path d="m130.63 157.51h138.3v11.55h-138.3z" opacity=".08"/></svg>