<svg width="24" height="24" viewBox="0 0 24 24" fill="none" xmlns="http://www.w3.org/2000/svg">
    <mask id="path-1-inside-1_82_16136" fill="white">
        <path fill-rule="evenodd" clip-rule="evenodd" d="M17.6251 20.3292L22.0001 14.9166L17.6251 9.50391L17.6251 12.4166H13.6704V17.4166H17.6251L17.6251 20.3292Z" />
    </mask>
    <path d="M22.0001 14.9166L23.5555 16.1738L24.5717 14.9166L23.5555 13.6593L22.0001 14.9166ZM17.6251 20.3292H15.6251L15.6251 25.9852L19.1805 21.5865L17.6251 20.3292ZM17.6251 9.50391L19.1805 8.24667L15.6251 3.84797L15.6251 9.50391L17.6251 9.50391ZM17.6251 12.4166V14.4166H19.6251V12.4166L17.6251 12.4166ZM13.6704 12.4166V10.4166H11.6704V12.4166H13.6704ZM13.6704 17.4166H11.6704V19.4166H13.6704V17.4166ZM17.6251 17.4166H19.6251L19.6251 15.4166H17.6251V17.4166ZM20.4447 13.6593L16.0697 19.072L19.1805 21.5865L23.5555 16.1738L20.4447 13.6593ZM16.0697 10.7611L20.4447 16.1738L23.5555 13.6593L19.1805 8.24667L16.0697 10.7611ZM19.6251 12.4166L19.6251 9.50391L15.6251 9.50391L15.6251 12.4166L19.6251 12.4166ZM13.6704 14.4166H17.6251V10.4166H13.6704V14.4166ZM15.6704 17.4166V12.4166H11.6704V17.4166H15.6704ZM17.6251 15.4166H13.6704V19.4166H17.6251V15.4166ZM19.6251 20.3292V17.4166H15.6251L15.6251 20.3292H19.6251Z" fill="#6A81A4" mask="url(#path-1-inside-1_82_16136)" />
    <path d="M5.5 15.9189C5.5 15.3666 5.05228 14.9189 4.5 14.9189C3.94772 14.9189 3.5 15.3666 3.5 15.9189H5.5ZM7.91432 3.83301H10.5V1.83301H7.91432V3.83301ZM13.5 6.83301V17.1663H15.5V6.83301H13.5ZM10.5 20.1663H8.5V22.1663H10.5V20.1663ZM5.5 17.1663V15.9189H3.5V17.1663H5.5ZM8.5 20.1663C6.84315 20.1663 5.5 18.8232 5.5 17.1663H3.5C3.5 19.9278 5.73858 22.1663 8.5 22.1663V20.1663ZM13.5 17.1663C13.5 18.8232 12.1569 20.1663 10.5 20.1663V22.1663C13.2614 22.1663 15.5 19.9278 15.5 17.1663H13.5ZM10.5 3.83301C12.1569 3.83301 13.5 5.17615 13.5 6.83301H15.5C15.5 4.07158 13.2614 1.83301 10.5 1.83301V3.83301ZM7.91432 1.83301C5.47636 1.83301 3.5 3.80937 3.5 6.24733H5.5C5.5 4.91394 6.58093 3.83301 7.91432 3.83301V1.83301Z" fill="#6A81A4" />
    <mask id="path-4-inside-2_82_16136" fill="white">
        <path fill-rule="evenodd" clip-rule="evenodd" d="M8.75 16.1583L12.8333 10.7457L8.75 5.33301V8.24567H2V13.2457H8.75V16.1583Z" />
    </mask>
    <path d="M12.8333 10.7457L14.43 11.9502L15.3386 10.7457L14.43 9.54117L12.8333 10.7457ZM8.75 16.1583H6.75V22.1303L10.3466 17.3628L8.75 16.1583ZM8.75 5.33301L10.3466 4.12851L6.75 -0.638983V5.33301H8.75ZM8.75 8.24567V10.2457H10.75V8.24567H8.75ZM2 8.24567V6.24567H0V8.24567H2ZM2 13.2457H0V15.2457H2V13.2457ZM8.75 13.2457H10.75V11.2457H8.75V13.2457ZM11.2367 9.54117L7.15338 14.9538L10.3466 17.3628L14.43 11.9502L11.2367 9.54117ZM7.15338 6.5375L11.2367 11.9502L14.43 9.54117L10.3466 4.12851L7.15338 6.5375ZM10.75 8.24567V5.33301H6.75V8.24567H10.75ZM2 10.2457H8.75V6.24567H2V10.2457ZM4 13.2457V8.24567H0V13.2457H4ZM8.75 11.2457H2V15.2457H8.75V11.2457ZM10.75 16.1583V13.2457H6.75V16.1583H10.75Z" fill="#6A81A4" mask="url(#path-4-inside-2_82_16136)" />
</svg>
    