<svg width="20" height="20" viewBox="0 0 20 20" fill="none" xmlns="http://www.w3.org/2000/svg">
    <path d="M13.2294 16.2395L13.3799 16.1355C13.8507 15.8099 14.0861 15.6471 14.2967 15.4725C15.4411 14.5241 16.2097 13.202 16.4656 11.7421C16.5126 11.4734 16.5371 11.1892 16.586 10.6208L16.6113 10.3269C16.6923 9.38597 16.6843 8.43958 16.5872 7.50019L16.5572 7.20949C16.3874 5.56558 15.3782 4.12476 13.8869 3.39719C11.435 2.20094 8.5648 2.20094 6.11291 3.39719C4.62165 4.12476 3.61245 5.56558 3.44264 7.20949L3.41262 7.50019C3.31558 8.43958 3.30751 9.38597 3.3885 10.3269L3.4138 10.6208C3.46273 11.1892 3.4872 11.4734 3.53428 11.7421C3.79009 13.202 4.55871 14.5241 5.70309 15.4725C5.91368 15.6471 6.14917 15.8099 6.61997 16.1355L6.77043 16.2395C7.41052 16.6821 7.7306 16.9035 8.05138 17.0573C9.28266 17.6476 10.7172 17.6476 11.9485 17.0573C12.2692 16.9035 12.5893 16.6821 13.2294 16.2395Z" stroke="#33D342" stroke-width="1.5" />
    <path d="M7.70825 9.79134L9.37492 11.458L12.2916 8.33301" stroke="#33D342" stroke-width="1.5" stroke-linecap="round" stroke-linejoin="round" />
</svg>
    