<svg width="24" height="24" viewBox="0 0 24 24" fill="none" xmlns="http://www.w3.org/2000/svg">
    <path d="M3.35288 8.95043C4.00437 6.17301 6.17301 4.00437 8.95043 3.35288C10.9563 2.88237 13.0437 2.88237 15.0496 3.35288C17.827 4.00437 19.9956 6.17301 20.6471 8.95044C21.1176 10.9563 21.1176 13.0437 20.6471 15.0496C19.9956 17.827 17.827 19.9956 15.0496 20.6471C13.0437 21.1176 10.9563 21.1176 8.95044 20.6471C6.17301 19.9956 4.00437 17.827 3.35288 15.0496C2.88237 13.0437 2.88237 10.9563 3.35288 8.95043Z" stroke="#6A81A4" stroke-width="2" />
    <path d="M10.1822 11.2964C10.3855 10.7881 10.7881 10.3855 11.2964 10.1822L13.3341 9.36709C14.1504 9.04057 14.9605 9.85065 14.6339 10.667L13.8188 12.7047C13.6156 13.2129 13.2129 13.6156 12.7047 13.8188L10.667 14.6339C9.85065 14.9605 9.04057 14.1504 9.36709 13.3341L10.1822 11.2964Z" stroke="#6A81A4" stroke-width="2" stroke-linecap="round" stroke-linejoin="round" />
</svg>
    