<svg width="24" height="24" viewBox="0 0 24 24" fill="none" xmlns="http://www.w3.org/2000/svg">
    <path d="M8 9L12 9" stroke="#6A81A4" stroke-width="2" stroke-linecap="round" />
    <path d="M2.88539 15.1513L3.85592 14.9103L2.88539 15.1513ZM2.88539 8.84875L3.85592 9.08974L2.88539 8.84875ZM21.1146 8.84875L22.0851 8.60776L21.1146 8.84875ZM21.1146 15.1512L20.1441 14.9103L21.1146 15.1512ZM15.1156 20.659L14.8992 19.6826H14.8992L15.1156 20.659ZM8.88443 20.659L9.10077 19.6826L8.88443 20.659ZM8.88443 3.34105L9.10077 4.31737H9.10077L8.88443 3.34105ZM15.1156 3.34105L15.3319 2.36473V2.36473L15.1156 3.34105ZM8.43056 20.5584L8.21422 21.5347L8.43056 20.5584ZM15.5694 20.5584L15.7858 21.5347L15.5694 20.5584ZM15.5694 3.44162L15.3531 4.41794L15.5694 3.44162ZM8.43056 3.44162L8.21422 2.4653L8.43056 3.44162ZM18.6933 14.5037L18.514 15.4874L18.514 15.4874L18.6933 14.5037ZM18.6347 14.493L18.8141 13.5092L18.8141 13.5092L18.6347 14.493ZM18.6347 9.50703L18.8141 10.4908L18.8141 10.4908L18.6347 9.50703ZM18.6933 9.49635L18.514 8.51257L18.514 8.51257L18.6933 9.49635ZM20.8998 10.7163C21.4058 10.9377 21.9955 10.7069 22.2168 10.2009C22.4381 9.69493 22.2074 9.10531 21.7014 8.88398L20.8998 10.7163ZM21.7014 15.116C22.2074 14.8947 22.4381 14.3051 22.2168 13.7991C21.9955 13.2931 21.4058 13.0623 20.8998 13.2837L21.7014 15.116ZM16.5782 12.6282L15.6166 12.9029L16.5782 12.6282ZM16.5782 11.3718L17.5397 11.6464L16.5782 11.3718ZM8.6469 4.41794L9.10077 4.31737L8.66809 2.36473L8.21422 2.4653L8.6469 4.41794ZM14.8992 4.31737L15.3531 4.41794L15.7858 2.4653L15.3319 2.36473L14.8992 4.31737ZM15.3531 19.5821L14.8992 19.6826L15.3319 21.6353L15.7858 21.5347L15.3531 19.5821ZM9.10077 19.6826L8.64689 19.5821L8.21422 21.5347L8.66809 21.6353L9.10077 19.6826ZM3.85592 14.9103C3.38136 12.9991 3.38136 11.0009 3.85592 9.08974L1.91487 8.60775C1.36171 10.8354 1.36171 13.1646 1.91487 15.3922L3.85592 14.9103ZM20.1441 9.08975C20.6186 11.0009 20.6186 12.9991 20.1441 14.9103L22.0851 15.3922C22.6383 13.1646 22.6383 10.8354 22.0851 8.60776L20.1441 9.08975ZM14.8992 19.6826C12.9896 20.1058 11.0104 20.1058 9.10077 19.6826L8.66809 21.6353C10.8628 22.1216 13.1372 22.1216 15.3319 21.6353L14.8992 19.6826ZM9.10077 4.31737C11.0104 3.89421 12.9896 3.89421 14.8992 4.31737L15.3319 2.36473C13.1372 1.87842 10.8628 1.87842 8.66809 2.36473L9.10077 4.31737ZM8.64689 19.5821C6.29302 19.0605 4.43713 17.2509 3.85592 14.9103L1.91487 15.3922C2.67897 18.4694 5.11901 20.8488 8.21422 21.5347L8.64689 19.5821ZM15.7858 21.5347C18.881 20.8488 21.321 18.4694 22.0851 15.3922L20.1441 14.9103C19.5629 17.2509 17.707 19.0605 15.3531 19.5821L15.7858 21.5347ZM15.3531 4.41794C17.707 4.93952 19.5629 6.74911 20.1441 9.08975L22.0851 8.60776C21.321 5.53056 18.881 3.15115 15.7858 2.4653L15.3531 4.41794ZM8.21422 2.4653C5.11901 3.15115 2.67897 5.53056 1.91487 8.60775L3.85592 9.08974C4.43713 6.74911 6.29302 4.93952 8.6469 4.41794L8.21422 2.4653ZM18.8727 13.5199L18.8141 13.5092L18.4554 15.4767L18.514 15.4874L18.8727 13.5199ZM18.8141 10.4908L18.8727 10.4801L18.514 8.51257L18.4554 8.52325L18.8141 10.4908ZM18.8727 10.4801C19.5569 10.3554 20.2627 10.4376 20.8998 10.7163L21.7014 8.88398C20.6995 8.44574 19.5897 8.31642 18.514 8.51257L18.8727 10.4801ZM18.514 15.4874C19.5897 15.6836 20.6995 15.5543 21.7014 15.116L20.8998 13.2837C20.2627 13.5624 19.5569 13.6446 18.8727 13.5199L18.514 15.4874ZM17.5397 12.3536C17.4737 12.1225 17.4737 11.8775 17.5397 11.6464L15.6166 11.0971C15.4481 11.6872 15.4481 12.3128 15.6166 12.9029L17.5397 12.3536ZM18.4554 8.52325C17.0964 8.77104 15.996 9.76888 15.6166 11.0971L17.5397 11.6464C17.7101 11.0499 18.2042 10.602 18.8141 10.4908L18.4554 8.52325ZM18.8141 13.5092C18.2042 13.398 17.7101 12.9501 17.5397 12.3536L15.6166 12.9029C15.996 14.2311 17.0964 15.229 18.4554 15.4767L18.8141 13.5092Z" fill="#6A81A4" />
</svg>
    